<!-- <svg id="icon-logo"  fill="#dc56c5">
      <path d="M19.119 23.909c-.575-1.648-1.759-2.472-3.552-2.472h-.566V31.6h.566c1.385 0 2.408-.563 3.068-1.688.556-.96.834-2.183.834-3.666-.001-.883-.118-1.662-.35-2.337zM9.412 24.031c.576 1.648 1.76 2.471 3.551 2.471h.566V16.339h-.566c-1.385 0-2.408.563-3.068 1.688-.554.96-.831 2.182-.832 3.666 0 .882.116 1.661.348 2.337zM0 .108h7.526V2.8H2.702v1.346H6.71V6.7H2.702v1.361h4.824v2.692H0V.109zM11.31.096h9.737L16.178 10.97 11.309.096zm4.869 9.527L20.202.661h-8.03l4.008 8.962zM24.937.108h7.526V2.8h-4.824v1.346h4.008V6.7h-4.008v1.361h4.824v2.692h-7.526V.109zM37.094 10.737V.095h.579l7.214 7.234V.095h.549v10.644l-8.342-.003zM53.318 10.753V2.8h-3.904V.108h8.342V2.8h-3.904v7.953h-.534zM4.438 18.461c.653 0 1.173.102 1.559.306.443.223.816.572 1.074 1.005s.39.934.381 1.442c.003.49-.131.97-.386 1.384-.259.424-.623.77-1.054 1.002a2.94 2.94 0 0 1 1.351 1.009c.359.459.553 1.032.549 1.621a2.816 2.816 0 0 1-.393 1.46 2.919 2.919 0 0 1-1.046 1.048 2.69 2.69 0 0 1-.727.275c-.267.061-.623.092-1.069.092H.105V18.461h4.334zM21.842 28.333c-.777-.698-1.16-1.746-1.15-3.143h2.419c-.01.581.158 1.025.505 1.331s.831.459 1.455.459c.515 0 .92-.087 1.217-.26s.445-.438.445-.795c0-.296-.151-.51-.453-.642a4.165 4.165 0 0 0-.898-.283l-.549-.102a11.623 11.623 0 0 1-1.974-.561 3.44 3.44 0 0 1-1.395-.994c-.376-.449-.564-1.04-.564-1.774s.188-1.359.564-1.873c.376-.515.878-.9 1.507-1.155a5.409 5.409 0 0 1 2.056-.382c.901 0 1.68.173 2.338.52s1.175.872 1.551 1.575c.174.297.29.627.341.971.039.302.059.606.059.91h-2.419c0-.551-.143-.956-.43-1.216s-.732-.39-1.336-.39c-.485 0-.861.087-1.128.26s-.401.408-.401.703c0 .326.178.566.534.719.438.178.89.316 1.351.413.891.184 1.586.359 2.086.528.504.171.953.48 1.299.895.366.428.549 1.03.549 1.805 0 .734-.198 1.366-.594 1.896s-.918.935-1.566 1.216a5.24 5.24 0 0 1-2.1.421c-1.435-.002-2.541-.352-3.318-1.05zM35.506 29.105v-7.953h-3.904V18.46h8.342v2.692H36.04v7.953h-.534zM42.749 18.461h7.526v2.692h-4.824v1.346h4.008v2.554h-4.008v1.361h4.824v2.692h-7.526V18.462zM61.422 29.105h-7.941V18.461h4.023c.861 0 1.563.158 2.108.474.52.291.951.725 1.247 1.254.298.535.452 1.142.445 1.759a3.433 3.433 0 0 1-.713 2.133 3.345 3.345 0 0 1-1.796 1.246l2.628 3.777zm-7.392-9.711v5.49h3.815l-3.815-5.49zm0 9.145h6.353l-2.167-3.105-.46.015H54.03v3.089zm.386-9.513 4.037 5.811a2.83 2.83 0 0 0 1.648-1.025c.428-.521.66-1.183.653-1.866a2.983 2.983 0 0 0-.401-1.529 2.656 2.656 0 0 0-1.128-1.055c-.436-.224-1.005-.336-1.707-.336h-3.102z"/>
</svg> -->

<svg xmlns="http://www.w3.org/2000/svg" viewBox="0 0 447 428" width="400" height="400">
      <style>
        .favicon-stroke {
          stroke-width: 8px;
          stroke: #8929ff;
        }
        #skull-outline { fill: white }
        #eyes-and-nose, #hat-outline { fill: #8929ff }
        #hat-fill, #hat-bill { fill: #dc56c5 }

        @media (prefers-color-scheme: dark) {
          .favicon-stroke { stroke: #343a40 }
          #skull-outline { fill: #adb5bd }
          #hat-outline { fill: #343a40 }
          #eyes-and-nose { fill: #343a40 }
        }
      </style>
      <g id="skull">
        <path id="skull-outline" class="favicon-stroke" stroke-linejoin="round" d="M19.62 188.39A166.62 166.62 0 0 1 186.24 21.77c115.25 0 166.61 74.59 166.61 166.62 0 1.83-.08 3.64-.13 5.46h.13s.68 175.09.68 178.65c0 30.11-16.26 41.67-36.32 41.67-12.7 0-35.22-3.93-36.22-32.69h-.2c-1 28.76-16.81 32.69-36.22 32.69-18 0-32.87-6.78-35.77-32.53-2.9 25.75-17.8 32.53-35.8 32.53-20.06 0-36.32-11.56-36.32-41.67 0-2.48.36-24.88.36-24.88A166.68 166.68 0 0 1 19.62 188.39Z"></path>
        <path id="eyes-and-nose" d="M180.77 205.76c0 23.64 12.84 42.81 28.68 42.81s28.68-19.17 28.68-42.81-12.84-42.82-28.68-42.82-28.68 19.17-28.68 42.82M275 205.76c0 23.64 12.84 42.81 28.68 42.81s28.68-19.17 28.68-42.81-12.84-42.82-28.68-42.82S275 182.11 275 205.76M264.51 276.85s-29.26 43.53-20.12 49.23c7.07 4.41 20.49-16.71 20.49-16.71s12.82 22.58 16.76 20c16.24-10.71-17.13-52.5-17.13-52.5"></path>
        <path id="jawline" class="favicon-stroke" fill="none" stroke-linecap="round" d="M114.92 284.33c22.54-1 22 7 22 62.48"></path>
      </g>
      <g id="hat">
        <path id="hat-fill" d="m36.27 118.44 2-5.41c.37-1 9.25-24.14 33-47.53 21.83-21.56 60.88-47.26 122.91-47.26C258 18.24 294.8 44 314.46 65.65c21.38 23.52 27.49 46.82 27.74 47.8l1.27 5Z"></path>
        <path id="hat-outline" d="M194.17 22.24c120.68 0 144.15 92.2 144.15 92.2H42.05s34.67-92.2 152.12-92.2m0-8c-27.9 0-53.65 5.07-76.52 15.08a162.3 162.3 0 0 0-49.21 33.33c-24.31 24-33.5 48-33.88 49l-4.07 10.82h318.13l-2.54-10c-.26-1-6.62-25.26-28.66-49.51a140.29 140.29 0 0 0-46.52-33.6c-22.25-10-48.06-15.12-76.73-15.12"></path>
        <path id="hat-bill" class="favicon-stroke" stroke-linecap="square" d="M350.7 117.76c69.17 0 112.9-106.93 57.6-106.93-81 0-95.18 74.6-198.47 106.93M80.32 117.86h267.53"></path>
      </g>
    </svg>